<svg preserveAspectRatio="none" width="100%" height="100%" overflow="visible" style="display: block;" viewBox="0 0 32 32" fill="none" xmlns="http://www.w3.org/2000/svg">
<g id="Group">
<path id="very" d="M4.9891 16.0929C4.9891 16.0929 5.86937 15.9924 7.53548 13.0845C7.53548 13.0845 7.57325 13.0337 7.63568 12.936C8.46244 16.9118 12.442 16.2684 12.442 16.2684L12.8239 14.7267C10.1506 15.3278 10.116 12.0571 10.116 12.0571L14.2125 13.5234C14.5761 13.1091 14.8074 12.5948 14.905 12.0417C14.9438 13.3662 14.8284 14.7941 14.4559 16.2684C14.4559 16.2684 16.932 15.2901 18.6448 16.9952C18.6448 16.9952 18.4812 14.0342 17.625 10.9726C18.116 10.6601 19.1658 10.1989 19.3509 11.8314C19.5944 13.9748 22.371 16.9449 24.9751 13.2599C24.9751 13.2599 23.3436 14.2376 22.4408 12.2074C21.5962 10.3081 21.2683 7.81848 18.9858 8.5493C20.2926 7.47621 21.5149 5.73858 19.9757 4.12323C17.9235 1.96905 14.724 4.54092 14.1606 5.0249C13.7918 4.77577 13.3936 4.58321 12.9629 4.4615C12.9629 4.4615 14.2828 6.80825 14.7508 10.1972C14.4512 9.3207 13.8238 8.51045 12.8586 7.99619C11.7097 7.38308 10.1831 7.49393 9.05261 8.31446C9.29183 6.26313 9.2357 3.5164 8.41523 0L4.43408 2.1559C4.43408 2.1559 7.53548 8.57273 4.71159 12.8342C4.71159 12.8342 1.1008 10.4778 3.36915 5.71515L1.05516 5.26375C1.05516 5.26375 -0.138297 6.72139 0.0133114 9.01157C0.189051 11.6583 1.89346 15.2393 4.9891 16.0929ZM18.414 5.54316C19.3163 6.74368 17.966 7.81963 16.7935 8.05276C16.7935 8.05276 16.5785 6.63511 15.7984 5.7123C15.7984 5.7123 17.5117 4.34208 18.414 5.54316ZM12.4725 9.08471C13.2226 9.36127 13.6323 10.2755 13.4881 11.2332L10.4926 10.0532C10.927 9.2407 11.7422 8.81558 12.4725 9.08471ZM26.8385 12.4325H26.8889C26.4445 14.0868 25.6513 15.0301 24.663 15.7164C22.8573 16.97 20.4967 16.2684 20.4967 16.2684C21.0291 17.8723 26.8385 20.8801 28.6436 15.5661C30.4488 10.2521 27.1858 6.6174 27.1858 6.6174C27.3536 8.81729 27.2875 10.4818 27.0405 11.7709C26.5641 11.8457 24.0377 12 25.1719 6.5174L22.5798 5.46431C22.5798 5.46431 21.2836 12.9845 26.8385 12.4325Z" fill="var(--fill-0, white)"/>
<path id="good" d="M28.7129 20.1786C25.6351 19.3763 23.6673 20.4043 23.6673 20.4043C23.6673 20.4043 25.5191 21.0306 25.8433 24.2647C26.167 27.4982 22.9035 29.729 22.9035 29.729C22.9035 29.729 26.5143 30.4558 29.2223 29.2273C31.9302 27.9994 32 24.9915 32 24.5652C32 24.139 31.7912 20.9808 28.7129 20.1786ZM27.9339 26.9983C27.8793 27.0011 27.8258 26.9994 27.7718 26.996C28.2428 26.4703 28.5314 25.6423 28.4946 24.7218C28.4506 23.6001 27.937 22.6585 27.2388 22.2556C27.3982 22.1951 27.5666 22.1562 27.7424 22.1476C28.8278 22.0974 29.7505 23.1425 29.8035 24.4818C29.8565 25.8218 29.0198 26.9486 27.9339 26.9983ZM24.4196 24.6509C24.4196 22.2225 22.5777 20.2534 20.3057 20.2534C20.0807 20.2534 19.8598 20.274 19.6452 20.3112C19.0498 18.7335 17.6193 17.6216 15.9484 17.6216C13.9172 17.6216 12.2411 19.2655 11.9898 21.3917C10.2282 21.7425 8.32238 22.955 7.68552 26.3823L9.80384 26.9091C9.80384 26.9091 10.2261 25.6332 11.3587 24.4852L11.4007 24.6155C11.4007 24.6155 11.6787 28.3753 8.86639 28.8268C6.05403 29.2782 4.35277 25.9315 5.22097 23.7133C6.08918 21.4945 7.85969 22.0836 7.85969 22.0836L11.2848 18.5992L10 18.0227C6.37771 16.6439 1.71458 19.2009 1.43654 24.8029C1.15903 30.4055 6.95686 33.8277 10.9842 30.9701C13.1654 29.4221 13.5946 27.1463 13.53 25.3852C14.2015 25.94 15.0388 26.2697 15.9484 26.2697C16.1247 26.2697 16.2973 26.256 16.4672 26.2326C17.0616 27.8788 18.5557 29.0473 20.3057 29.0473C22.5777 29.0473 24.4196 27.0788 24.4196 24.6509ZM16.8334 22.2933C16.7941 22.3602 16.7558 22.4276 16.7191 22.4968C16.4578 22.891 16.0318 23.1487 15.5492 23.1487C15.1977 23.1487 14.8756 23.0122 14.6249 22.7853C14.9123 22.7379 15.2135 22.7059 15.5319 22.6979L15.428 21.57C15.428 21.57 14.9071 21.4002 14.1323 21.3151C14.2519 20.5843 14.84 20.0283 15.5492 20.0283C16.345 20.0283 16.9903 20.7266 16.9903 21.5888C16.9903 21.8425 16.9331 22.0814 16.8334 22.2933ZM19.4202 25.9315C18.9911 25.9315 18.606 25.7292 18.339 25.4092C19.1002 24.7921 19.6505 23.887 19.854 22.8442C20.4479 23.0442 20.8786 23.6441 20.8786 24.3521C20.8786 25.2241 20.2255 25.9315 19.4202 25.9315Z" fill="var(--fill-0, white)"/>
</g>
</svg>
