<svg preserveAspectRatio="none" width="100%" height="100%" overflow="visible" style="display: block;" viewBox="0 0 30.5722 30.44" fill="none" xmlns="http://www.w3.org/2000/svg">
<path id="Vector" fill-rule="evenodd" clip-rule="evenodd" d="M15.6146 30.3531C12.6143 30.3531 11.22 29.9151 8.79642 28.1632C7.26343 30.1341 2.40898 31.6744 2.19728 29.0391C2.19728 27.0609 1.75928 25.3892 1.26289 23.5642C0.671594 21.3158 0 18.8119 0 15.1839C0 6.51884 7.11014 0 15.5343 0C23.9657 0 30.5721 6.84004 30.5721 15.2642C30.6004 23.558 23.9083 30.3089 15.6146 30.3531ZM15.7387 7.48974C11.6361 7.27804 8.43873 10.1177 7.73063 14.5707C7.14664 18.2571 8.18323 22.7466 9.06652 22.9802C9.48992 23.0824 10.5557 22.221 11.22 21.5567C12.3184 22.3155 13.5976 22.7713 14.9284 22.878C19.1793 23.0825 22.8116 19.8462 23.097 15.6C23.2632 11.3447 19.9902 7.74055 15.7387 7.49704L15.7387 7.48974Z" fill="var(--fill-0, white)"/>
</svg>
