<svg preserveAspectRatio="none" width="100%" height="100%" overflow="visible" style="display: block;" viewBox="0 0 32 32" fill="none" xmlns="http://www.w3.org/2000/svg">
<g id="telegram 3" clip-path="url(#clip0_0_7)">
<path id="Vector" d="M16 32C24.8373 32 32 24.8373 32 16C32 7.16267 24.8373 0 16 0C7.16267 0 0 7.16267 0 16C0 24.8373 7.16267 32 16 32Z" fill="url(#paint0_linear_0_7)"/>
<path id="Vector_2" d="M6.87289 15.8613L17.6498 11.4222C18.7129 10.96 22.32 9.47911 22.32 9.47911C22.32 9.47911 23.9858 8.832 23.8453 10.4053C23.7991 11.0524 23.4311 13.3191 23.0596 15.7707L21.904 23.0311C21.904 23.0311 21.8116 24.0942 21.0258 24.2791C20.24 24.464 18.944 23.632 18.7129 23.4453C18.528 23.3067 15.2462 21.2267 14.0427 20.2098C13.7173 19.9324 13.3493 19.376 14.0889 18.7289C15.7547 17.2036 17.7422 15.3067 18.9422 14.1049C19.4987 13.5484 20.0516 12.2542 17.7404 13.8276L11.2213 18.2222C11.2213 18.2222 10.4818 18.6844 9.09333 18.2667C7.70667 17.8524 6.08889 17.296 6.08889 17.296C6.08889 17.296 4.97778 16.6009 6.87289 15.8613Z" fill="var(--fill-0, white)"/>
</g>
<defs>
<linearGradient id="paint0_linear_0_7" x1="20.6912" y1="5.05742" x2="12.691" y2="23.723" gradientUnits="userSpaceOnUse">
<stop stop-color="#37AEE2"/>
<stop offset="1" stop-color="#1E96C8"/>
</linearGradient>
<clipPath id="clip0_0_7">
<rect width="32" height="32" fill="white"/>
</clipPath>
</defs>
</svg>
