<svg preserveAspectRatio="none" width="100%" height="100%" overflow="visible" style="display: block;" viewBox="0 0 40 46" fill="none" xmlns="http://www.w3.org/2000/svg">
<g id="Group 44">
<path id="Union" fill-rule="evenodd" clip-rule="evenodd" d="M23.0647 39.7667C32.6556 38.2918 40 30.0036 40 20C40 8.9543 31.0457 0 20 0C8.9543 0 0 8.9543 0 20C0 29.9645 7.2872 38.2271 16.8231 39.7491L19.7647 46L23.0647 39.7667Z" fill="var(--fill-0, #01922D)"/>
<g id="Group">
<path id="Vector" d="M24.9762 17.5886C23.1967 14.3176 19.3024 11.679 14.2857 11.9048" stroke="var(--stroke-0, white)" stroke-width="2" stroke-miterlimit="10"/>
<path id="Vector_2" d="M20.0029 20.21C23.4276 19.0957 26.7333 16.8624 27.9414 13.7238" stroke="var(--stroke-0, white)" stroke-width="2" stroke-miterlimit="10"/>
<path id="Vector_3" d="M19.7405 25.9176C23.4052 25.98 27.6833 24.0714 30 19.5238" stroke="var(--stroke-0, white)" stroke-width="2" stroke-miterlimit="10"/>
<path id="Vector_4" d="M20.0029 20.21C19.28 23.5886 19.4533 27.3695 21.1991 30.0014" stroke="var(--stroke-0, white)" stroke-width="2" stroke-miterlimit="10"/>
<path id="Vector_5" d="M15.2914 17.1248C13.4462 20.2648 13.0067 24.8033 15.5205 29.0472" stroke="var(--stroke-0, white)" stroke-width="2" stroke-miterlimit="10"/>
<path id="Vector_6" d="M20.0029 20.21C17.3448 17.7395 13.7976 15.9343 10.5305 16.4357" stroke="var(--stroke-0, white)" stroke-width="2" stroke-miterlimit="10"/>
<path id="Vector_7" d="M20 30C25.5228 30 30 25.5228 30 20C30 14.4772 25.5228 10 20 10C14.4772 10 10 14.4772 10 20C10 25.5228 14.4772 30 20 30Z" stroke="var(--stroke-0, white)" stroke-width="2" stroke-miterlimit="10"/>
</g>
</g>
</svg>
