<svg preserveAspectRatio="none" width="100%" height="100%" overflow="visible" style="display: block;" viewBox="0 0 40 40" fill="none" xmlns="http://www.w3.org/2000/svg">
<g id="Group 52">
<path id="Union" d="M40 20C40 31.0457 31.0457 40 20 40C8.95431 40 0 31.0457 0 20C0 8.95431 8.95431 0 20 0C31.0457 0 40 8.95431 40 20Z" fill="var(--fill-0, #2F80ED)"/>
<g id="Group">
<path id="Vector" d="M23.5642 13H10.9197C10.3313 13 9.89454 13.592 10.0223 14.217L11.4529 21.217C11.5467 21.675 11.9191 22 12.3503 22H23.5642" stroke="var(--stroke-0, white)" stroke-width="2" stroke-miterlimit="10" stroke-linejoin="round"/>
<path id="Vector_2" d="M11.612 26H21.9387C22.3552 26 22.7193 25.695 22.8268 25.258L26.3224 11H30" stroke="var(--stroke-0, white)" stroke-width="2" stroke-miterlimit="10" stroke-linejoin="round"/>
<path id="Vector_3" d="M23.5642 29H21.7254" stroke="var(--stroke-0, white)" stroke-width="2" stroke-miterlimit="10"/>
<path id="Vector_4" d="M13.4508 29H11.612" stroke="var(--stroke-0, white)" stroke-width="2" stroke-miterlimit="10"/>
</g>
</g>
</svg>
