<svg preserveAspectRatio="none" width="100%" height="100%" overflow="visible" style="display: block;" viewBox="0 0 40 40" fill="none" xmlns="http://www.w3.org/2000/svg">
<g id="Group 56">
<path id="Union" d="M40 20C40 31.0457 31.0457 40 20 40C8.95431 40 0 31.0457 0 20C0 8.95431 8.95431 0 20 0C31.0457 0 40 8.95431 40 20Z" fill="var(--fill-0, #013B92)"/>
<g id="Group 39">
<path id="Vector" d="M28.914 12.462C24.0035 10.5127 15.9959 10.5127 11.086 12.462C10.3898 23.344 13.9718 28.1848 19.9942 30.9987C19.9977 31.0004 20.0023 31.0004 20.0058 30.9987C26.0288 28.1854 29.6102 23.344 28.914 12.462Z" stroke="var(--stroke-0, white)" stroke-width="2" stroke-miterlimit="10" stroke-linecap="round" stroke-linejoin="round"/>
<path id="Vector_2" d="M17.9678 18.9374C17.6287 18.4078 16.9795 17.804 16.0598 17.804C15.3044 17.804 14.7255 18.4095 14.4839 18.938" stroke="var(--stroke-0, white)" stroke-width="2" stroke-miterlimit="10" stroke-linecap="round" stroke-linejoin="round"/>
<path id="Vector_3" d="M22.0323 18.9374C22.3714 18.4078 23.0205 17.804 23.9402 17.804C24.6957 17.804 25.2746 18.4095 25.5161 18.938" stroke="var(--stroke-0, white)" stroke-width="2" stroke-miterlimit="10" stroke-linecap="round" stroke-linejoin="round"/>
<path id="Vector_4" d="M16.2258 24.0408C16.2258 24.0408 17.7773 26.3087 20.0018 26.3087C22.2262 26.3087 23.7742 24.0408 23.7742 24.0408" stroke="var(--stroke-0, white)" stroke-width="2" stroke-miterlimit="10" stroke-linecap="round" stroke-linejoin="round"/>
</g>
</g>
</svg>
