<svg preserveAspectRatio="none" width="100%" height="100%" overflow="visible" style="display: block;" viewBox="0 0 38 48.7317" fill="none" xmlns="http://www.w3.org/2000/svg">
<g id="Group">
<path id="Vector" d="M18 47H3C1.896 47 1 46.104 1 45V8C1 6.896 1.896 6 3 6H8" stroke="var(--stroke-0, #01922D)" stroke-width="2" stroke-miterlimit="10"/>
<path id="Vector_2" d="M30 6H35C36.104 6 37 6.896 37 8V22" stroke="var(--stroke-0, #01922D)" stroke-width="2" stroke-miterlimit="10"/>
<path id="Vector_3" d="M15.917 43H5V10H8" stroke="var(--stroke-0, #01922D)" stroke-width="2" stroke-miterlimit="10"/>
<path id="Vector_4" d="M30 10H33V23" stroke="var(--stroke-0, #01922D)" stroke-width="2" stroke-miterlimit="10"/>
<path id="Vector_5" d="M25 5H23C23 2.791 21.209 1 19 1C16.791 1 15 2.791 15 5H13C11.343 5 10 6.343 10 8V11H28V8C28 6.343 26.657 5 25 5Z" stroke="var(--stroke-0, #01922D)" stroke-width="2" stroke-miterlimit="10"/>
<path id="Vector_6" d="M19 4V6" stroke="var(--stroke-0, #01922D)" stroke-width="2" stroke-miterlimit="10"/>
<path id="Vector_7" d="M10 19L12 21L16 17" stroke="var(--stroke-0, #01922D)" stroke-width="2" stroke-miterlimit="10" stroke-linecap="round" stroke-linejoin="round"/>
<path id="Vector_8" d="M10 27L12 29L16 25" stroke="var(--stroke-0, #01922D)" stroke-width="2" stroke-miterlimit="10" stroke-linecap="round" stroke-linejoin="round"/>
<path id="Vector_9" d="M10 35L12 37L16 33" stroke="var(--stroke-0, #01922D)" stroke-width="2" stroke-miterlimit="10" stroke-linecap="round" stroke-linejoin="round"/>
<path id="Vector_10" d="M21 18H27" stroke="var(--stroke-0, #01922D)" stroke-width="2" stroke-miterlimit="10" stroke-linecap="round" stroke-linejoin="round"/>
<path id="Vector_11" d="M21 25H27" stroke="var(--stroke-0, #01922D)" stroke-width="2" stroke-miterlimit="10" stroke-linecap="round" stroke-linejoin="round"/>
<path id="Vector_12" d="M30.5 29C34.0902 29 37 31.8318 37 35.3245C37.0022 36.8358 36.7718 37.8826 35.8892 39.2557C35.0067 40.6287 30.5 47 30.5 47C30.5 47 25.9933 40.6287 25.1108 39.2557C24.2282 37.8826 23.9978 36.8358 24 35.3245C24 31.8318 26.9098 29 30.5 29Z" stroke="var(--stroke-0, #01922D)" stroke-width="2" stroke-miterlimit="10"/>
<path id="Vector_13" d="M30.4958 33C30.4975 33 30.4983 33 30.5 33C30.5017 33 30.5025 33 30.5042 33C31.8808 33 32.9975 34.0583 33 35.4967C33.0025 36.935 31.8875 38 30.5117 38C30.5075 38 30.5042 38 30.5 38C30.4958 38 30.4925 38 30.4883 38C29.1125 38 27.9975 36.935 28 35.4967C28.0025 34.0583 29.1192 33 30.4958 33Z" stroke="var(--stroke-0, #01922D)" stroke-width="2" stroke-miterlimit="10"/>
</g>
</svg>
