<svg preserveAspectRatio="none" width="100%" height="100%" overflow="visible" style="display: block;" viewBox="0 0 44 45" fill="none" xmlns="http://www.w3.org/2000/svg">
<g id="Group">
<path id="Vector" d="M14 5V1H30V5" stroke="var(--stroke-0, #01922D)" stroke-width="2" stroke-miterlimit="10"/>
<path id="Vector_2" d="M25 36H20V44H25V36Z" stroke="var(--stroke-0, #01922D)" stroke-width="2" stroke-miterlimit="10"/>
<path id="Vector_3" d="M16 23V19H20V23" stroke="var(--stroke-0, #01922D)" stroke-width="2" stroke-miterlimit="10"/>
<path id="Vector_4" d="M16 31V27H20V31" stroke="var(--stroke-0, #01922D)" stroke-width="2" stroke-miterlimit="10"/>
<path id="Vector_5" d="M25 23V19H29V23" stroke="var(--stroke-0, #01922D)" stroke-width="2" stroke-miterlimit="10"/>
<path id="Vector_6" d="M16 15V11H20V15" stroke="var(--stroke-0, #01922D)" stroke-width="2" stroke-miterlimit="10"/>
<path id="Vector_7" d="M25 15V11H29V15" stroke="var(--stroke-0, #01922D)" stroke-width="2" stroke-miterlimit="10"/>
<path id="Vector_8" d="M25 31V27H29V31" stroke="var(--stroke-0, #01922D)" stroke-width="2" stroke-miterlimit="10"/>
<path id="Vector_9" d="M8 44H1V17H8" stroke="var(--stroke-0, #01922D)" stroke-width="2" stroke-miterlimit="10"/>
<path id="Vector_10" d="M4 17V13H8" stroke="var(--stroke-0, #01922D)" stroke-width="2" stroke-miterlimit="10"/>
<path id="Vector_11" d="M37 44H43V27H37" stroke="var(--stroke-0, #01922D)" stroke-width="2" stroke-miterlimit="10"/>
<path id="Vector_12" d="M41 27V23H37" stroke="var(--stroke-0, #01922D)" stroke-width="2" stroke-miterlimit="10"/>
<path id="Vector_13" d="M34 5H11V44H34V5Z" stroke="var(--stroke-0, #01922D)" stroke-width="2" stroke-miterlimit="10"/>
</g>
</svg>
