<svg preserveAspectRatio="none" width="100%" height="100%" overflow="visible" style="display: block;" viewBox="0 0 36.5251 48" fill="none" xmlns="http://www.w3.org/2000/svg">
<g id="Group">
<path id="Vector" d="M7 14C8.594 14.069 10.651 14.341 10.651 14.341C11.432 16.124 14.181 17.749 14.795 18.261C16.436 19.625 19.789 19.865 21.086 20.844C22.943 22.247 24.471 23.903 26.858 23.931C29.657 23.963 29.906 22.077 29.606 21.047C29.329 20.094 29.063 19.042 27.001 18C25.611 17.298 23.983 16.729 23.234 15.092C22.813 14.17 22.491 13.228 22.646 12.421C22.902 11.081 24.267 10.896 25.001 11C26.168 11.167 29.356 14.408 30.14 15.115C29.938 15.812 29.334 17.187 29.304 18.42C29.217 21.78 30.836 24.068 31.951 24.068C33.959 24.068 33.764 21.632 34.188 19.756C34.501 18.374 35.918 13.121 35.42 12.299C34.922 11.477 29.929 5.57799 28.569 5.16299C27.208 4.74999 19.042 2 16 2C12.958 2 7 2 7 2" stroke="var(--stroke-0, #01922D)" stroke-width="2" stroke-miterlimit="10"/>
<path id="Vector_2" d="M7 1H1V16H7V1Z" stroke="var(--stroke-0, #01922D)" stroke-width="2" stroke-miterlimit="10"/>
<path id="Vector_3" d="M29 27C26.239 27 24 29.238 24 32C24 34.049 25.235 35.806 27 36.578V37.999L28 39L27 40V42L28 43L27 44V47H29L31 45V36.578C32.764 35.806 34 34.049 34 32C34 29.238 31.761 27 29 27Z" stroke="var(--stroke-0, #01922D)" stroke-width="2" stroke-miterlimit="10"/>
<path id="Vector_4" d="M23 28.394C21.72 28.394 20.441 28.882 19.464 29.858C18.015 31.307 17.647 33.423 18.348 35.216L14.999 38.566V40L12.999 40.565L10.978 42.586L12.393 44H15L21 38C22.243 38.486 23.725 38.48 25 37.948" stroke="var(--stroke-0, #01922D)" stroke-width="2" stroke-miterlimit="10"/>
<path id="Vector_5" d="M29 31V23" stroke="var(--stroke-0, #01922D)" stroke-width="2" stroke-miterlimit="10"/>
</g>
</svg>
