<svg preserveAspectRatio="none" width="100%" height="100%" overflow="visible" style="display: block;" viewBox="0 0 26 22" fill="none" xmlns="http://www.w3.org/2000/svg">
<g id="Group 58">
<path id="&#226;&#128;&#157;" d="M1.37143 22C5.44759 15.9404 5.92378 14.9516 6.20571 11.0712C5.06286 11.1424 4.02286 10.9644 3.08571 10.5372C2.14857 10.11 1.39429 9.48112 0.822857 8.65049C0.274285 7.81985 0 6.84682 0 5.73139C0 4.02265 0.525714 2.64617 1.57714 1.60194C2.65143 0.53398 4.02286 0 5.69143 0C7.56571 0 9.08571 0.652644 10.2514 1.95793C11.4171 3.23948 12 4.99568 12 7.22654C12 8.95901 11.6 10.6915 10.8 12.4239C10.0229 14.1327 8.84571 15.794 7.26857 17.4078C5.69143 19.0216 3.72571 20.5523 1.37143 22Z" fill="var(--fill-0, #01922D)"/>
<path id="&#226;&#128;&#157;_2" d="M15.3714 22C19.4476 15.9404 19.9238 14.9516 20.2057 11.0712C19.0629 11.1424 18.0229 10.9644 17.0857 10.5372C16.1486 10.11 15.3943 9.48112 14.8229 8.65049C14.2743 7.81985 14 6.84682 14 5.73139C14 4.02265 14.5257 2.64617 15.5771 1.60194C16.6514 0.53398 18.0229 0 19.6914 0C21.5657 0 23.0857 0.652644 24.2514 1.95793C25.4171 3.23948 26 4.99568 26 7.22654C26 8.95901 25.6 10.6915 24.8 12.4239C24.0229 14.1327 22.8457 15.794 21.2686 17.4078C19.6914 19.0216 17.7257 20.5523 15.3714 22Z" fill="var(--fill-0, #01922D)"/>
</g>
</svg>
